<?xml version="1.0" encoding="iso-8859-1"?>
<!-- Generator: Adobe Illustrator 19.0.0, SVG Export Plug-In . SVG Version: 6.00 Build 0)  -->
<svg version="1.1" id="Capa_1" xmlns="http://www.w3.org/2000/svg" xmlns:xlink="http://www.w3.org/1999/xlink" x="0px" y="0px"
	 viewBox="0 0 480.005 480.005" style="enable-background:new 0 0 480.005 480.005;" xml:space="preserve">
<g>
	<g>
		<path d="M40.003,0v64h16v272h168.352l-94.84,131.312c-2.589,3.583-1.783,8.587,1.8,11.176c3.583,2.589,8.587,1.783,11.176-1.8
			l89.512-123.944V472c0,4.418,3.582,8,8,8s8-3.582,8-8V352.744l89.512,123.944c2.589,3.583,7.593,4.389,11.176,1.8
			c3.583-2.589,4.389-7.593,1.8-11.176L255.651,336h168.352V64h16V0H40.003z M408.003,320h-336V64h336V320z M424.003,48h-368V16h368
			V48z"/>
	</g>
</g>
<g>
	<g>
		<path d="M373.462,226.344c-3.1-2.994-8.015-2.994-11.116,0l-58.344,58.344l-18.344-18.344c-3.124-3.123-8.188-3.123-11.312,0
			c-3.123,3.124-3.123,8.188,0,11.312l24,24c3.124,3.123,8.188,3.123,11.312,0l64-64
			C376.728,234.478,376.64,229.414,373.462,226.344z"/>
	</g>
</g>
<g>
	<g>
		<path d="M240.003,160h-8.472c-3.781-33.395-30.133-59.747-63.528-63.528V88c0-4.418-3.582-8-8-8s-8,3.582-8,8v8.472
			c-39.504,4.544-67.845,40.252-63.301,79.756c4.17,36.255,34.807,63.657,71.301,63.772c36.645-0.05,67.42-27.586,71.528-64h8.472
			c4.418,0,8-3.582,8-8S244.421,160,240.003,160z M152.003,223.513c-30.617-4.376-51.889-32.743-47.513-63.36
			c3.521-24.636,22.878-43.992,47.513-47.513V168c0,4.418,3.582,8,8,8h55.36C210.987,206.617,182.619,227.889,152.003,223.513z
			 M168.003,160v-47.36c24.528,3.566,43.794,22.832,47.36,47.36H168.003z"/>
	</g>
</g>
<g>
	<g>
		<rect x="88.003" y="288" width="16" height="16"/>
	</g>
</g>
<g>
	<g>
		<rect x="120.003" y="288" width="120" height="16"/>
	</g>
</g>
<g>
	<g>
		<rect x="88.003" y="256" width="16" height="16"/>
	</g>
</g>
<g>
	<g>
		<rect x="120.003" y="256" width="120" height="16"/>
	</g>
</g>
<g>
	<g>
		<rect x="264.003" y="128" width="16" height="16"/>
	</g>
</g>
<g>
	<g>
		<rect x="296.003" y="128" width="96" height="16"/>
	</g>
</g>
<g>
	<g>
		<rect x="264.003" y="96" width="16" height="16"/>
	</g>
</g>
<g>
	<g>
		<rect x="296.003" y="96" width="96" height="16"/>
	</g>
</g>
<g>
	<g>
		<rect x="264.003" y="192" width="16" height="16"/>
	</g>
</g>
<g>
	<g>
		<rect x="296.003" y="192" width="96" height="16"/>
	</g>
</g>
<g>
	<g>
		<rect x="264.003" y="160" width="16" height="16"/>
	</g>
</g>
<g>
	<g>
		<rect x="296.003" y="160" width="96" height="16"/>
	</g>
</g>
<g>
</g>
<g>
</g>
<g>
</g>
<g>
</g>
<g>
</g>
<g>
</g>
<g>
</g>
<g>
</g>
<g>
</g>
<g>
</g>
<g>
</g>
<g>
</g>
<g>
</g>
<g>
</g>
<g>
</g>
</svg>
