<!DOCTYPE svg PUBLIC "-//W3C//DTD SVG 20010904//EN" "http://www.w3.org/TR/2001/REC-SVG-20010904/DTD/svg10.dtd">
<svg version="1.0" xmlns="http://www.w3.org/2000/svg" width="241px" height="217px" viewBox="0 0 2410 2170" preserveAspectRatio="xMidYMid meet">
 <path class="fill" d="M20 2139 c0 -6 9 -13 19 -16 16 -4 18 -11 14 -44 -10 -73 38 -92 94 -37 18 17 35 29 38 27 2 -3 -16 -35 -40 -71 -24 -36 -47 -78 -51 -92 -6 -26 9 -56 28 -56 5 0 51 40 101 88 95 92 148 131 128 95 -5 -10 -46 -61 -90 -113 -127 -149 -170 -256 -111 -275 36 -11 76 23 207 177 72 84 140 162 152 172 57 51 1 -36 -172 -269 -157 -211 -184 -279 -122 -307 39 -17 92 23 308 229 198 191 287 266 287 241 0 -19 -62 -113 -187 -285 -207 -283 -244 -362 -194 -412 55 -55 116 -21 385 214 330 289 341 283 86 -40 -194 -246 -230 -305 -230 -378 0 -32 6 -49 23 -65 69 -65 138 -31 397 198 135 119 258 215 265 208 8 -8 -61 -96 -179 -228 -201 -225 -255 -315 -240 -394 9 -50 54 -86 105 -86 81 0 155 48 389 254 85 75 158 136 162 136 12 0 -10 -41 -135 -244 -185 -304 -207 -367 -148 -427 68 -68 119 -37 466 283 76 71 142 128 147 128 13 0 -15 -59 -147 -310 -129 -246 -160 -319 -150 -357 6 -27 43 -63 63 -63 40 0 106 54 302 245 214 209 285 273 296 262 11 -10 -69 -139 -188 -306 -65 -90 -116 -167 -113 -169 8 -8 116 91 153 142 20 28 79 100 130 160 133 156 154 205 112 259 -29 37 -70 43 -125 18 -63 -28 -124 -77 -299 -243 -162 -155 -161 -155 -61 22 68 120 151 290 170 349 32 99 4 161 -72 161 -73 0 -133 -41 -363 -249 -133 -121 -140 -126 -110 -76 13 22 53 85 89 140 112 174 172 297 178 365 6 58 5 60 -30 95 -78 78 -148 43 -436 -215 -235 -211 -246 -210 -61 5 141 164 193 230 225 290 69 130 -8 245 -135 200 -62 -22 -145 -84 -335 -254 -94 -83 -174 -151 -178 -151 -14 0 15 44 127 190 203 264 246 334 246 399 -1 53 -38 91 -90 91 -54 0 -179 -88 -355 -250 -111 -102 -224 -200 -231 -200 -10 0 30 61 168 259 195 279 232 359 190 411 -30 37 -81 31 -150 -17 -31 -21 -146 -126 -256 -233 -109 -107 -193 -184 -186 -170 7 14 64 96 127 183 175 243 212 321 162 347 -50 28 -119 -28 -285 -232 -57 -69 -108 -130 -115 -133 -24 -16 29 66 114 175 106 136 126 172 107 195 -16 20 -59 19 -90 -1 -14 -9 -58 -49 -99 -88 -77 -74 -79 -73 -25 7 41 60 49 84 34 102 -20 24 -47 17 -90 -22 -46 -41 -69 -35 -45 11 12 22 12 32 4 42 -14 17 -79 19 -79 3z" />
</svg>
