<svg xmlns="http://www.w3.org/2000/svg" viewBox="0 0 500 733">
  <path class="stroke fill-bg" d="M270.64 670.69l-55.37-16.46 28.15-30.22 45.11 9.99-17.89 36.69z"/>
  <path class="stroke" d="M288.53 634l-29.77 12.03-8.38 3.39-6.96-25.41M215.27 654.23l33.48-10.77M270.64 670.69l-11.88-24.66"/>
  <path class="stroke fill-bg" d="M368.21 635.21l-42.12 24.66-22.92-29.77 37.97-16.31 27.07 21.42z"/>
  <path class="stroke" d="M341.14 613.79L340 631.68l-.35 5.49-36.48-7.07M326.09 659.87l5.92-24.18M368.21 635.21L340 631.68"/>
  <path class="stroke fill-bg" d="M427.32 655.02l-60.72 1.49-14.8-32.01 47.55-.9 27.97 31.42z"/>
  <path class="stroke" d="M351.8 624.5l20.33 17.57 31.06-.68-3.84-17.79"/>
  <path class="stroke fill-bg" d="M427.32 655.03l-24.95-17.45M367.79 638.32l-1.19 18.19"/>
</svg>
