<svg xmlns="http://www.w3.org/2000/svg" viewBox="0 0 500 733">
  <path class="stroke fill-bg" d="M286.04 53.95h115.79v109.5H286.04zM170.17 106.45h93.33v145h-93.33zM281.83 199.12h110v75h-110zM353.5 297.7h109.33v112.42H353.5zM388.17 429.12h90.33v63.33h-90.33zM62.5 425.86h83.13v83.13H62.5zM84.83 296.12h90v114h-90zM29.5 181.45h103v90h-103z"/>
  <path class="stroke" d="M42.17 222.78h77.66M42.17 232.78h77.66M42.17 242.78h77.66M42.17 252.78h77.66M170.17 178.95l35.33 27.17 34.17-99.67M216.83 251.45l29.67-88 17 25.33"/>
  <circle class="stroke" cx="129.83" cy="330.12" r="10"/>
  <path class="stroke" d="M96.83 353.91h23.67M96.83 363.16h23.67M96.83 372.41h23.67M96.83 381.66h23.67M96.83 390.91h23.67M136.83 353.91h23.67M136.83 363.16h23.67M136.83 372.41h23.67M136.83 381.66h23.67M136.83 390.91h23.67M62.5 497.79l55.33-49.67 27.8 31.33M129.07 460.78l16.56-16.52"/>
  <circle class="fill" cx="83.37" cy="446.65" r="8.54"/>
  <circle class="fill" cx="100.35" cy="444.26" r="3.51"/>
  <path class="stroke" d="M353.5 381.66l29.33-23.21 28 15.76v-44.09H353.5"/>
  <circle class="stroke" cx="459.07" cy="455.55" r="8.9"/>
  <path class="stroke" d="M438.5 450.52h-37.67M438.5 463.52h-37.67M438.5 476.52h-37.67M293.17 227.28h45M293.17 237.28h45M293.17 247.28h45M293.17 257.28h45M349.5 227.28h28.33M349.5 210.28h28.33M349.5 237.28h28.33M349.5 247.28h28.33M349.5 257.28h28.33M345.83 116.45h41.34M345.83 125.45h41.34M345.83 135.45h41.34M345.83 145.45h41.34M345.83 77.45h41.34M345.83 87.45h41.34M345.83 97.45h41.34M345.83 106.45h41.34"/>
  <circle class="fill" cx="314.26" cy="83.29" r="8.9"/>
  <path class="stroke" d="M462.81 355.71a20.86 20.86 0 0 1-2.76.18 21.56 21.56 0 0 1 0-43.11 20.86 20.86 0 0 1 2.76.18M422 409.84a18.17 18.17 0 1 0-35.46-5.58 18.4 18.4 0 0 0 .87 5.58"/>
  <circle class="fill" cx="112.5" cy="201.12" r="8.54"/>
</svg>
