<svg id="SvgjsSvg1042" width="288" height="288"
	xmlns="http://www.w3.org/2000/svg" version="1.1"
	xmlns:xlink="http://www.w3.org/1999/xlink"
	xmlns:svgjs="http://svgjs.com/svgjs">
	<defs id="SvgjsDefs1043"></defs>
	<g id="SvgjsG1044">
		<svg
			xmlns="http://www.w3.org/2000/svg" width="334" height="334" viewBox="46 0 402 374">
			<path fill="#ffffff" d="M 217.144531 142.796875 C 218.414063 142.789063 219.511719 142.804688 220.523438 142.820313 C 223.589844 142.871094 226.011719 142.910156 229.816406 142.1875 C 231.328125 141.898438 232.929688 141.714844 234.601563 141.636719 C 232.480469 144.261719 228.34375 148.300781 222.503906 149.105469 C 216.738281 149.902344 211.339844 145.667969 208.441406 142.832031 Z M 221.054688 152.207031 C 221.664063 152.207031 222.285156 152.164063 222.914063 152.078125 C 233.109375 150.675781 238.609375 141.234375 238.839844 140.832031 C 239.101563 140.367188 239.101563 139.796875 238.832031 139.332031 C 238.566406 138.871094 238.070313 138.585938 237.535156 138.585938 L 236.519531 138.589844 C 233.964844 138.589844 231.519531 138.8125 229.253906 139.238281 C 225.753906 139.902344 223.578125 139.871094 220.574219 139.820313 C 219.539063 139.804688 218.417969 139.789063 217.128906 139.796875 L 205.039063 139.847656 C 204.464844 139.847656 203.945313 140.175781 203.695313 140.6875 C 203.445313 141.203125 203.507813 141.8125 203.859375 142.265625 C 204.191406 142.695313 211.679688 152.207031 221.054688 152.207031 " class="color030303 svgShape"></path>
			<path fill="none" d="M239.414063 60.757813C239.679688 60.953125 239.992188 61.046875 240.296875 61.046875 240.761719 61.046875 241.214844 60.835938 241.511719 60.433594 242 59.765625 241.851563 58.824219 241.183594 58.335938 237.339844 55.53125 235.109375 51.863281 235.5 48.992188 235.730469 47.285156 236.875 46.035156 238.898438 45.277344 239.671875 44.984375 240.066406 44.117188 239.773438 43.34375 239.480469 42.566406 238.617188 42.175781 237.839844 42.46875 234.796875 43.613281 232.910156 45.785156 232.527344 48.589844 231.980469 52.59375 234.621094 57.257813 239.414063 60.757813M206.34375 45.371094C206.386719 45.371094 206.433594 45.371094 206.476563 45.363281 210.75 44.992188 213.058594 43.933594 213.746094 42.027344 214.476563 40 212.832031 38.292969 212.640625 38.105469 212.050781 37.523438 211.101563 37.527344 210.519531 38.117188 209.9375 38.707031 209.941406 39.65625 210.53125 40.238281 210.707031 40.414063 210.972656 40.871094 210.921875 41.011719 210.917969 41.019531 210.449219 42.007813 206.214844 42.378906 205.390625 42.449219 204.78125 43.175781 204.851563 44.003906 204.917969 44.78125 205.574219 45.371094 206.34375 45.371094M203.015625 67.925781C203.101563 67.929688 203.183594 67.929688 203.265625 67.929688 205.527344 67.929688 206.84375 66.972656 207.558594 66.152344 209.585938 63.824219 209.039063 60.214844 208.972656 59.808594 208.832031 58.992188 208.058594 58.445313 207.242188 58.582031 206.425781 58.71875 205.875 59.492188 206.015625 60.3125 206.125 60.972656 206.234375 63.101563 205.296875 64.183594 204.832031 64.714844 204.105469 64.941406 203.109375 64.929688 202.292969 64.867188 201.589844 65.554688 201.5625 66.382813 201.539063 67.210938 202.1875 67.902344 203.015625 67.925781M186.757813 72.59375C187.226563 72.59375 187.6875 72.375 187.980469 71.964844 188.460938 71.289063 188.304688 70.355469 187.632813 69.871094 186.050781 68.742188 185.160156 67.625 185.128906 66.730469 185.105469 66.007813 185.671875 65.515625 185.71875 65.476563 186.363281 64.96875 186.480469 64.039063 185.980469 63.386719 185.476563 62.726563 184.535156 62.601563 183.878906 63.109375 183.695313 63.246094 182.09375 64.539063 182.128906 66.757813 182.164063 68.683594 183.425781 70.554688 185.886719 72.3125 186.152344 72.5 186.457031 72.59375 186.757813 72.59375M185.644531 79.472656C185.660156 80.292969 186.328125 80.945313 187.144531 80.945313L187.171875 80.945313C192.023438 80.851563 195.332031 78.390625 195.472656 78.285156 196.132813 77.785156 196.261719 76.851563 195.765625 76.191406 195.273438 75.53125 194.332031 75.398438 193.667969 75.890625 193.640625 75.910156 190.957031 77.871094 187.113281 77.945313 186.285156 77.960938 185.628906 78.644531 185.644531 79.472656M256.621094 60.441406C255.976563 62.859375 257.148438 65.777344 260.097656 69.113281 260.398438 69.449219 260.808594 69.621094 261.222656 69.621094 261.578125 69.621094 261.929688 69.496094 262.21875 69.242188 262.835938 68.695313 262.894531 67.746094 262.347656 67.125 259.421875 63.820313 259.316406 62.019531 259.511719 61.238281 259.769531 60.214844 260.804688 59.8125 260.871094 59.789063 261.648438 59.515625 262.0625 58.671875 261.796875 57.890625 261.535156 57.105469 260.679688 56.683594 259.898438 56.949219 258.941406 57.273438 257.171875 58.375 256.621094 60.441406M275.710938 79.765625C275.742188 79.765625 275.773438 79.765625 275.804688 79.765625 279.75 79.511719 282.207031 78.308594 283.113281 76.183594 284.484375 72.957031 281.515625 69.308594 281.171875 68.902344 280.636719 68.269531 279.691406 68.191406 279.058594 68.726563 278.425781 69.261719 278.347656 70.207031 278.882813 70.839844 279.585938 71.671875 280.871094 73.785156 280.351563 75.007813 279.941406 75.976563 278.257813 76.601563 275.617188 76.769531 274.789063 76.824219 274.160156 77.535156 274.214844 78.363281 274.265625 79.15625 274.925781 79.765625 275.710938 79.765625M274.859375 91.429688C276.335938 91.925781 277.652344 92.175781 278.804688 92.175781 280.039063 92.175781 281.085938 91.890625 281.933594 91.324219 283.65625 90.171875 283.824219 88.355469 283.839844 88.152344 283.890625 87.339844 283.289063 86.65625 282.476563 86.578125 281.667969 86.496094 280.941406 87.109375 280.847656 87.917969 280.839844 87.976563 280.761719 88.515625 280.234375 88.851563 279.761719 89.148438 278.558594 89.511719 275.820313 88.585938 275.035156 88.324219 274.183594 88.742188 273.917969 89.53125 273.65625 90.316406 274.078125 91.164063 274.859375 91.429688M269.675781 61.828125C269.574219 62.648438 270.15625 63.398438 270.980469 63.5 271.042969 63.507813 271.105469 63.511719 271.167969 63.511719 271.914063 63.511719 272.558594 62.957031 272.652344 62.195313 273.507813 55.300781 266.257813 48.558594 265.949219 48.277344 265.339844 47.71875 264.390625 47.757813 263.832031 48.367188 263.269531 48.976563 263.308594 49.925781 263.917969 50.484375 263.984375 50.546875 270.339844 56.46875 269.675781 61.828125M247.804688 55.851563C247.945313 55.851563 248.085938 55.832031 248.222656 55.789063 249.019531 55.558594 249.476563 54.726563 249.246094 53.933594 248.667969 51.9375 249 50.195313 250.265625 48.609375 252.09375 46.3125 255.351563 45.144531 256.28125 45.109375 256.910156 45.328125 257.628906 45.105469 258.015625 44.523438 258.476563 43.835938 258.292969 42.90625 257.605469 42.445313 256.082031 41.421875 252.320313 43.03125 250.195313 44.585938 246.585938 47.222656 245.226563 50.839844 246.367188 54.769531 246.554688 55.421875 247.15625 55.851563 247.804688 55.851563M230.082031 73.730469C233.261719 74.761719 236.019531 75.136719 238.351563 75.136719 244.550781 75.136719 247.753906 72.464844 247.933594 72.3125 248.5625 71.769531 248.632813 70.824219 248.089844 70.195313 247.550781 69.566406 246.601563 69.496094 245.976563 70.039063 245.929688 70.078125 241.058594 74.136719 231.007813 70.875 230.222656 70.621094 229.375 71.050781 229.117188 71.839844 228.863281 72.628906 229.292969 73.472656 230.082031 73.730469M265.242188 83.652344C257.359375 80.285156 255.996094 76.773438 255.953125 76.644531 255.710938 75.867188 254.890625 75.417969 254.105469 75.648438 253.308594 75.875 252.847656 76.707031 253.078125 77.503906 253.21875 77.996094 254.722656 82.417969 264.066406 86.410156 264.257813 86.496094 264.457031 86.53125 264.652344 86.53125 265.238281 86.53125 265.789063 86.191406 266.035156 85.621094 266.359375 84.859375 266.003906 83.976563 265.242188 83.652344M220.5625 60.160156C219.863281 60.601563 219.65625 61.53125 220.101563 62.226563 220.386719 62.679688 220.871094 62.925781 221.367188 62.925781 221.644531 62.925781 221.921875 62.847656 222.171875 62.691406 227.839844 59.09375 226.484375 54.722656 226.421875 54.535156 226.167969 53.761719 225.347656 53.347656 224.570313 53.585938 223.789063 53.820313 223.34375 54.65625 223.5625 55.4375 223.589844 55.539063 224.179688 57.863281 220.5625 60.160156M217.484375 37.207031C217.550781 37.234375 224.289063 40.046875 224.453125 45.976563 224.472656 46.792969 225.140625 47.4375 225.949219 47.4375 225.964844 47.4375 225.980469 47.4375 225.992188 47.433594 226.820313 47.410156 227.472656 46.722656 227.453125 45.894531 227.234375 38.027344 218.96875 34.570313 218.617188 34.429688 217.847656 34.117188 216.972656 34.484375 216.660156 35.253906 216.347656 36.019531 216.714844 36.894531 217.484375 37.207031M209.210938 75.5625C209 76.363281 209.480469 77.183594 210.28125 77.394531 212.886719 78.074219 215.085938 78.335938 216.9375 78.335938 223.023438 78.335938 225.285156 75.488281 225.40625 75.328125 225.90625 74.667969 225.78125 73.730469 225.121094 73.226563 224.460938 72.722656 223.519531 72.851563 223.019531 73.511719 222.992188 73.546875 220.152344 76.878906 211.042969 74.492188 210.242188 74.285156 209.421875 74.761719 209.210938 75.5625M195.441406 59.714844C195.679688 59.714844 195.917969 59.660156 196.144531 59.539063 196.875 59.152344 197.15625 58.246094 196.769531 57.515625 194.675781 53.554688 195.347656 52.476563 195.429688 52.363281 195.785156 51.898438 197.027344 51.945313 197.613281 52.070313 198.417969 52.253906 199.21875 51.75 199.40625 50.945313 199.589844 50.136719 199.085938 49.332031 198.277344 49.144531 197.917969 49.0625 194.699219 48.394531 193.054688 50.535156 191.710938 52.28125 192.058594 55.023438 194.113281 58.914063 194.382813 59.425781 194.902344 59.714844 195.441406 59.714844"></path>
			<path fill="#ffffff" d="M264.703125 122.332031C264.761719 122.339844 264.820313 122.34375 264.878906 122.34375 265.628906 122.34375 266.277344 121.777344 266.363281 121.015625 266.554688 119.375 267.113281 117.761719 267.820313 116.273438 267.914063 116.476563 267.988281 116.695313 268.003906 116.9375 268.054688 117.730469 268.714844 118.34375 269.5 118.34375 269.53125 118.34375 269.5625 118.34375 269.59375 118.339844 270.421875 118.289063 271.050781 117.574219 270.996094 116.75 270.910156 115.335938 270.191406 114.203125 269.429688 113.421875 270.984375 111.035156 272.542969 109.425781 272.570313 109.394531 273.148438 108.800781 273.140625 107.851563 272.550781 107.273438 271.960938 106.691406 271.011719 106.699219 270.429688 107.292969 270.277344 107.445313 268.082031 109.714844 266.164063 112.992188 266.164063 112.996094 266.160156 113 266.160156 113 266.160156 113.003906 266.160156 113.003906 266.15625 113.007813 264.867188 115.214844 263.707031 117.875 263.386719 120.671875 263.289063 121.496094 263.882813 122.238281 264.703125 122.332031M206.625 108.84375C206.625 106.363281 205.027344 104.34375 203.0625 104.34375 201.097656 104.34375 199.5 106.363281 199.5 108.84375 199.5 111.324219 201.097656 113.34375 203.0625 113.34375 205.027344 113.34375 206.625 111.324219 206.625 108.84375M235.5625 111.84375C237.527344 111.84375 239.125 109.824219 239.125 107.34375 239.125 104.863281 237.527344 102.84375 235.5625 102.84375 233.597656 102.84375 232 104.863281 232 107.34375 232 109.824219 233.597656 111.84375 235.5625 111.84375" class="color030303 svgShape"></path>
			<path fill="#ffffff" d="M 286.546875 315.566406 L 281.867188 318.761719 C 273.953125 324.171875 265.769531 329.765625 260.210938 334.722656 C 258.074219 336.628906 256.054688 338.761719 254.269531 340.644531 C 252.175781 342.851563 249.324219 345.859375 248.289063 346.011719 C 247.375 345.386719 247.367188 344.335938 247.425781 343.804688 C 247.683594 343.503906 247.9375 343.179688 248.179688 342.835938 C 249.878906 340.453125 257.671875 331.652344 261.90625 329.417969 C 262.640625 329.035156 262.921875 328.125 262.535156 327.394531 C 262.148438 326.660156 261.242188 326.378906 260.507813 326.765625 C 255.464844 329.425781 247.265625 338.949219 245.738281 341.097656 C 244.417969 342.949219 242.371094 344.558594 240.980469 343.722656 C 239.738281 342.980469 239.875 341.296875 240.019531 340.503906 C 240.515625 340.113281 240.996094 339.667969 241.449219 339.160156 C 243.097656 337.304688 251.609375 327.9375 257.210938 325.554688 C 257.972656 325.234375 258.328125 324.351563 258.003906 323.589844 C 257.683594 322.828125 256.800781 322.472656 256.039063 322.792969 C 250.003906 325.359375 241.628906 334.441406 239.207031 337.164063 C 238.660156 337.78125 238.105469 338.253906 237.507813 338.613281 C 236.476563 339.234375 235.699219 339.355469 235.191406 338.976563 C 234.132813 338.183594 234.558594 336.589844 234.777344 335.960938 C 235.230469 335.558594 235.523438 335.242188 235.59375 335.160156 C 235.699219 335.054688 246.304688 324.660156 253.457031 321.640625 C 254.222656 321.320313 254.578125 320.4375 254.257813 319.675781 C 253.933594 318.914063 253.054688 318.554688 252.292969 318.878906 C 244.613281 322.117188 233.941406 332.582031 233.429688 333.085938 C 232.828125 333.75 231.152344 335.203125 230.074219 335.203125 C 229.875 335.203125 229.699219 335.15625 229.488281 334.921875 C 229.308594 334.722656 229.113281 334.417969 229.175781 333.832031 C 229.3125 332.554688 230.84375 328.722656 242.082031 320.644531 C 252.066406 313.46875 262.507813 315.214844 262.605469 315.234375 C 262.835938 315.277344 263.070313 315.261719 263.292969 315.199219 C 263.640625 315.097656 271.847656 312.59375 283.007813 299.742188 C 283.242188 299.46875 283.464844 299.1875 283.683594 298.90625 C 283.738281 298.847656 283.785156 298.789063 283.828125 298.726563 C 292.824219 287.097656 290.894531 267.164063 290.136719 261.605469 C 298.152344 259.96875 304.257813 258.0625 308.789063 256.269531 C 311.484375 266.488281 311.679688 279.402344 309.242188 290.4375 C 306.722656 301.851563 295.0625 309.777344 286.546875 315.566406 M 224.5625 328.472656 C 224.171875 328.125 223.667969 327.617188 223.082031 327.023438 C 220.300781 324.207031 215.648438 319.492188 209.304688 317.886719 C 207.195313 317.355469 202.734375 317.390625 199.148438 317.421875 L 198.863281 317.425781 C 191.703125 317.480469 183.589844 317.554688 177.917969 313.15625 C 169.929688 306.960938 167.027344 288.4375 169.28125 258.109375 C 171.269531 258.21875 173.234375 258.273438 175.136719 258.273438 C 180.46875 258.273438 185.324219 257.90625 189.019531 257.511719 C 188.355469 263.835938 186.410156 284.183594 187.976563 292.011719 C 190.25 303.367188 202.410156 302.765625 211.363281 301.324219 C 219.449219 300.023438 228.53125 299.988281 237.339844 307.226563 C 237.417969 307.308594 237.503906 307.382813 237.601563 307.449219 C 240.058594 309.507813 242.496094 312.136719 244.882813 315.476563 C 243.753906 316.039063 242.613281 316.695313 241.46875 317.449219 C 235.605469 310.886719 226.191406 304.070313 224.953125 303.863281 C 224.140625 303.726563 223.363281 304.28125 223.230469 305.097656 C 223.109375 305.820313 223.527344 306.507813 224.191406 306.75 C 225.238281 307.308594 233.296875 312.863281 239.003906 319.179688 C 237.898438 319.996094 236.863281 320.789063 235.902344 321.554688 C 230.941406 315.371094 219.996094 308.542969 219.5 308.234375 C 218.792969 307.796875 217.871094 308.015625 217.433594 308.71875 C 216.996094 309.421875 217.214844 310.347656 217.917969 310.785156 C 218.035156 310.855469 229.023438 317.710938 233.597656 323.472656 C 232.777344 324.1875 232.023438 324.875 231.339844 325.542969 C 226.285156 319.488281 216.035156 313.257813 215.566406 312.972656 C 214.859375 312.546875 213.9375 312.773438 213.507813 313.484375 C 213.078125 314.191406 213.308594 315.113281 214.015625 315.542969 C 214.128906 315.609375 224.667969 322.015625 229.265625 327.738281 C 228.792969 328.289063 228.382813 328.820313 228.019531 329.335938 C 227.273438 329.460938 225.761719 329.542969 224.5625 328.472656 M 192.074219 257.152344 C 193.117188 257.015625 193.960938 256.890625 194.609375 256.792969 L 195.011719 297.394531 C 192.808594 296.132813 191.46875 294.164063 190.917969 291.421875 C 189.394531 283.804688 191.519531 262.40625 192.074219 257.152344 M 247.667969 314.230469 C 245.902344 311.707031 244.101563 309.542969 242.277344 307.699219 L 270.335938 307.699219 C 266.351563 310.714844 263.589844 311.898438 262.734375 312.21875 C 261.097656 311.996094 254.90625 311.421875 247.667969 314.230469 M 283.820313 293.09375 L 282.007813 263.054688 C 283.808594 262.777344 285.53125 262.488281 287.179688 262.179688 C 287.792969 266.996094 289.191406 282.371094 283.820313 293.09375 M 175.433594 198.289063 C 181.800781 189.257813 210.246094 184.082031 220.183594 184.035156 C 220.984375 187.585938 221.820313 190.714844 222.53125 192.136719 C 223.121094 193.316406 224.367188 194.128906 226.234375 194.546875 C 227.289063 194.789063 228.546875 194.898438 229.933594 194.898438 C 236.039063 194.898438 244.542969 192.761719 248.046875 190.027344 C 251.375 187.429688 250.21875 183.914063 249.296875 181.8125 C 255.359375 181.238281 274.847656 180.8125 291.023438 196.125 C 296.519531 201.328125 300.863281 207.792969 303.933594 215.347656 L 317.398438 248.453125 C 314.496094 250.570313 303.113281 257.546875 275.492188 260.929688 L 269.359375 216.886719 C 269.246094 216.066406 268.484375 215.488281 267.667969 215.609375 C 266.847656 215.722656 266.273438 216.480469 266.390625 217.300781 L 272.722656 262.800781 C 272.828125 263.546875 273.46875 264.09375 274.207031 264.09375 C 274.265625 264.09375 274.320313 264.089844 274.378906 264.082031 C 275.984375 263.898438 277.523438 263.699219 279.027344 263.488281 L 281.074219 297.363281 C 280.960938 297.5 280.859375 297.644531 280.742188 297.777344 C 278.3125 300.574219 276.035156 302.84375 273.964844 304.699219 L 238.964844 304.699219 C 229.242188 296.882813 219.160156 297.03125 210.886719 298.363281 C 205.433594 299.238281 201.1875 299.320313 198.023438 298.566406 L 197.207031 216.246094 C 197.199219 215.421875 196.53125 214.757813 195.707031 214.757813 L 195.695313 214.757813 C 194.863281 214.765625 194.199219 215.445313 194.207031 216.273438 L 194.578125 253.757813 C 190.621094 254.375 173.703125 256.703125 159.164063 253.902344 C 160.125 246.703125 165.078125 212.980469 175.433594 198.289063 M 191.25 132.867188 C 191.121094 132.378906 191.003906 131.933594 190.894531 131.539063 C 188.757813 123.738281 187.613281 115.257813 187.625 107.527344 C 187.695313 107.382813 187.742188 107.230469 187.761719 107.066406 C 188.011719 105.066406 189.164063 99.476563 191.441406 97.632813 C 192.261719 96.972656 193.09375 96.738281 194.140625 96.445313 C 196.425781 95.804688 199.242188 95.015625 202.507813 89.542969 C 205.519531 90.09375 213.734375 90.898438 219.542969 84.890625 C 222.003906 86.167969 227.953125 88.179688 235.171875 83.136719 C 237.207031 85.890625 241.261719 89.195313 247.03125 89.015625 C 246.625 90.429688 246.375 92.285156 246.90625 94.207031 C 247.578125 96.644531 249.3125 98.609375 252.054688 100.046875 C 254.621094 101.390625 257.019531 101.601563 259.1875 100.667969 C 261.164063 99.820313 262.535156 98.160156 263.433594 96.648438 C 264.484375 98.054688 266.242188 99.640625 269.183594 100.851563 C 265.855469 102.828125 261.972656 105.878906 259.925781 107.558594 C 259.285156 108.082031 259.191406 109.027344 259.714844 109.667969 C 260.238281 110.308594 261.183594 110.402344 261.824219 109.878906 C 266.058594 106.414063 271.320313 102.71875 273.242188 102.070313 C 273.46875 102.117188 273.691406 102.167969 273.925781 102.210938 C 274.488281 102.972656 275.707031 104.890625 276.15625 107.683594 C 276.167969 107.765625 276.179688 107.859375 276.191406 107.941406 C 276.316406 108.847656 276.371094 109.839844 276.285156 110.917969 C 276.242188 111.464844 276.308594 111.875 276.421875 112.203125 C 276.363281 113.867188 276.144531 115.675781 275.667969 117.609375 C 273.722656 125.503906 263.058594 125.957031 262.953125 125.960938 C 262.179688 125.984375 261.550781 126.59375 261.503906 127.367188 C 261.035156 134.847656 253.582031 150.644531 244.675781 159.796875 C 236.199219 168.503906 220.609375 166.503906 220.453125 166.480469 C 220.414063 166.476563 220.378906 166.472656 220.339844 166.46875 C 219.957031 166.449219 219.589844 166.402344 219.214844 166.363281 C 218.949219 166.238281 218.640625 166.1875 218.328125 166.238281 C 218.304688 166.242188 218.285156 166.253906 218.261719 166.257813 C 199.433594 163.609375 193.523438 141.410156 191.25 132.867188 M 181.488281 97.539063 C 181.457031 96.855469 181.464844 96.097656 181.703125 95.527344 C 182.222656 95.277344 182.5 94.832031 182.652344 94.585938 C 182.878906 94.230469 183.566406 93.140625 182.765625 91.898438 C 182.21875 91.054688 181.257813 90.722656 180.371094 91.070313 C 180.140625 91.160156 179.929688 91.292969 179.753906 91.460938 C 179.042969 90.636719 178.539063 89.621094 178.300781 88.503906 C 177.960938 86.894531 178.242188 85.308594 179.078125 84.160156 C 179.269531 83.894531 179.785156 83.183594 179.578125 82.285156 C 179.371094 81.375 178.578125 80.945313 178.242188 80.761719 C 176.054688 79.589844 174.875 77.785156 174.738281 75.402344 C 174.640625 73.773438 175.042969 72.507813 175.941406 71.554688 C 176.171875 71.542969 176.402344 71.488281 176.613281 71.367188 C 176.941406 71.179688 177.164063 70.882813 177.28125 70.554688 C 177.332031 70.527344 177.375 70.496094 177.429688 70.46875 C 178.5625 69.910156 178.734375 68.855469 178.808594 68.402344 C 178.820313 68.335938 178.828125 68.269531 178.847656 68.207031 C 179.242188 67.046875 179.015625 66.050781 178.152344 65.164063 C 176.34375 63.300781 175.816406 61.175781 176.582031 58.851563 C 177.273438 56.746094 178.699219 55.710938 180.9375 55.6875 C 182.175781 55.675781 182.972656 54.917969 183.066406 53.65625 C 183.261719 51.050781 185.238281 49.167969 187.683594 49.238281 C 188.9375 49.214844 189.722656 48.511719 189.804688 47.253906 C 189.90625 45.71875 190.503906 44.546875 191.628906 43.671875 C 192.4375 43.039063 192.699219 42.226563 192.40625 41.253906 C 191.628906 38.65625 192.269531 36.390625 194.160156 35.046875 C 195.851563 33.84375 198.230469 34.058594 200.21875 35.589844 L 200.484375 35.789063 C 200.914063 36.113281 201.484375 36.183594 201.980469 35.96875 C 202.476563 35.757813 202.820313 35.292969 202.878906 34.757813 C 203.144531 32.414063 204.402344 30.753906 206.328125 30.203125 C 208.398438 29.609375 210.640625 30.457031 212.179688 32.40625 C 212.5 32.8125 213 33.027344 213.515625 32.96875 C 214.027344 32.914063 214.476563 32.601563 214.703125 32.140625 C 215.667969 30.183594 217.019531 29.273438 218.957031 29.269531 C 218.960938 29.269531 218.964844 29.269531 218.964844 29.269531 C 220.96875 29.269531 222.585938 30.226563 223.914063 32.195313 C 224.175781 32.582031 224.605469 32.828125 225.074219 32.851563 C 225.546875 32.867188 225.996094 32.683594 226.300781 32.324219 C 228.117188 30.1875 229.925781 29.773438 232.550781 30.90625 C 233.039063 31.121094 234.269531 31.460938 235.121094 30.097656 C 235.984375 28.71875 237.34375 27.957031 238.953125 27.953125 L 238.96875 27.953125 C 240.828125 27.953125 242.648438 29 243.714844 30.683594 C 244.210938 31.464844 244.886719 31.832031 245.730469 31.796875 C 247.886719 31.660156 249.5625 33.546875 250.195313 35.335938 C 250.304688 35.644531 250.5625 36.371094 251.3125 36.726563 C 252.046875 37.082031 252.746094 36.828125 253.046875 36.71875 C 255.164063 35.957031 257.503906 37.378906 258.484375 40.023438 C 259.160156 41.832031 260.453125 41.785156 261.425781 41.425781 C 263.457031 40.675781 265.757813 42.074219 266.777344 44.671875 C 267.371094 46.179688 268.394531 46.675781 269.820313 46.148438 C 271.753906 45.429688 274.191406 46.941406 275.136719 49.457031 C 275.921875 51.550781 275.820313 53.4375 274.816406 55.386719 C 274.570313 55.859375 274.59375 56.421875 274.875 56.871094 C 275.15625 57.316406 275.65625 57.585938 276.179688 57.574219 C 278.140625 57.546875 279.519531 58.355469 280.570313 60.152344 C 281.550781 61.832031 281.773438 63.621094 281.269531 65.785156 C 281.179688 66.171875 281.246094 66.582031 281.457031 66.917969 C 281.664063 67.253906 282 67.496094 282.390625 67.585938 C 285.695313 68.355469 287.199219 70.21875 287.421875 73.820313 C 287.457031 74.394531 287.609375 75.222656 288.554688 75.828125 C 290.1875 76.875 291.261719 78.890625 291.355469 81.089844 C 291.4375 83 290.761719 84.71875 289.535156 85.730469 L 289.457031 85.765625 C 289.015625 85.984375 288.703125 86.40625 288.632813 86.894531 C 288.558594 87.382813 288.734375 87.878906 289.09375 88.214844 C 290.320313 89.347656 291.023438 90.699219 291.304688 92.464844 C 291.664063 94.691406 290.714844 97.128906 289.140625 98.019531 C 287.773438 98.789063 286.472656 98.664063 285.046875 97.632813 C 284.9375 97.550781 284.824219 97.476563 284.699219 97.390625 L 284.527344 97.277344 C 284.128906 97.007813 283.625 96.941406 283.171875 97.109375 C 282.71875 97.273438 282.371094 97.644531 282.242188 98.105469 L 281.921875 99.25 C 281.703125 100.03125 281.492188 100.808594 281.25 101.570313 C 280.796875 102.992188 279.925781 105.121094 279.078125 106.960938 C 279.027344 106.660156 278.964844 106.367188 278.898438 106.082031 C 278.441406 103.917969 277.722656 102.121094 276.859375 100.90625 C 275.816406 99.433594 274.738281 99.042969 274.015625 98.972656 C 273.8125 98.957031 273.578125 98.980469 273.324219 99.019531 C 265.640625 97.234375 264.90625 93.082031 264.882813 92.917969 C 264.796875 92.207031 264.222656 91.65625 263.511719 91.597656 C 263.472656 91.59375 263.429688 91.59375 263.390625 91.59375 C 262.726563 91.59375 262.132813 92.035156 261.949219 92.683594 C 261.9375 92.722656 260.730469 96.742188 258.003906 97.914063 C 256.6875 98.476563 255.199219 98.304688 253.445313 97.386719 C 251.476563 96.359375 250.253906 95.027344 249.804688 93.429688 C 249.050781 90.742188 250.660156 88.023438 250.675781 88.003906 C 250.988281 87.492188 250.964844 86.84375 250.621094 86.351563 C 250.273438 85.863281 249.671875 85.628906 249.085938 85.75 C 240.863281 87.484375 237.042969 80.558594 236.890625 80.269531 C 236.679688 79.871094 236.304688 79.589844 235.867188 79.5 C 235.425781 79.40625 234.972656 79.519531 234.621094 79.800781 C 226.414063 86.410156 220.417969 81.972656 220.175781 81.789063 C 219.535156 81.285156 218.609375 81.386719 218.09375 82.011719 C 212.304688 89.027344 202.242188 86.421875 202.144531 86.394531 C 201.480469 86.210938 200.769531 86.511719 200.4375 87.121094 C 197.539063 92.378906 195.496094 92.949219 193.332031 93.554688 C 192.171875 93.882813 190.859375 94.25 189.558594 95.300781 C 187.359375 97.074219 186.113281 100.582031 185.445313 103.25 C 185.15625 103.03125 184.832031 102.824219 184.46875 102.636719 C 182.136719 101.425781 181.558594 99.199219 181.488281 97.539063 M 245.695313 181.03125 C 245.703125 181.054688 245.71875 181.085938 245.726563 181.113281 C 245.734375 181.125 245.738281 181.136719 245.742188 181.152344 C 245.878906 181.542969 246.066406 181.957031 246.269531 182.398438 C 247.46875 184.992188 247.761719 186.441406 246.203125 187.660156 C 242.570313 190.496094 231.746094 192.714844 226.898438 191.625 C 225.84375 191.382813 225.339844 191.039063 225.21875 190.796875 C 223.824219 188.011719 221.523438 175.914063 220.402344 169.496094 C 221.074219 169.574219 222.613281 169.714844 224.695313 169.714844 C 228.683594 169.714844 234.625 169.179688 240.078125 166.621094 C 241.433594 169.886719 244.613281 177.640625 245.695313 181.03125 M 383.625 304.699219 L 304.710938 304.699219 C 308.21875 300.796875 311.019531 296.3125 312.171875 291.082031 C 314.738281 279.464844 314.492188 265.824219 311.574219 255.09375 C 317.609375 252.402344 320.03125 250.210938 320.234375 250.023438 C 320.6875 249.597656 320.832031 248.9375 320.597656 248.359375 L 306.714844 214.214844 C 303.480469 206.265625 298.894531 199.445313 293.089844 193.945313 C 275.039063 176.863281 253.605469 178.226563 248.144531 178.910156 C 246.738281 174.894531 243.890625 167.976563 242.726563 165.175781 C 244.179688 164.265625 245.5625 163.183594 246.824219 161.886719 C 255.84375 152.625 263.207031 137.355469 264.367188 128.851563 C 267.75 128.453125 276.535156 126.625 278.582031 118.328125 C 279.070313 116.347656 279.324219 114.398438 279.398438 112.535156 C 280 111.847656 280.660156 110.652344 281.585938 108.679688 C 282.597656 106.53125 283.632813 103.976563 284.109375 102.476563 C 284.277344 101.941406 284.4375 101.394531 284.589844 100.84375 C 286.585938 101.808594 288.644531 101.742188 290.613281 100.632813 C 293.292969 99.121094 294.832031 95.484375 294.269531 91.988281 C 293.972656 90.152344 293.316406 88.589844 292.269531 87.25 C 293.691406 85.644531 294.457031 83.382813 294.351563 80.960938 C 294.21875 77.855469 292.746094 75.070313 290.402344 73.457031 C 290.09375 69.183594 288.089844 66.367188 284.441406 65.066406 C 284.734375 62.714844 284.308594 60.605469 283.160156 58.640625 C 281.964844 56.597656 280.300781 55.296875 278.269531 54.800781 C 278.867188 52.71875 278.761719 50.574219 277.945313 48.402344 C 276.503906 44.5625 272.808594 42.324219 269.390625 43.148438 C 267.773438 39.523438 264.34375 37.585938 261.066406 38.40625 C 259.488281 34.84375 256.128906 32.921875 252.765625 33.6875 C 251.484375 30.789063 248.851563 28.863281 246.058594 28.792969 C 244.425781 26.414063 241.738281 24.953125 238.96875 24.953125 L 238.945313 24.953125 C 236.574219 24.960938 234.457031 26.007813 233.023438 27.871094 C 230.101563 26.824219 227.511719 27.238281 225.292969 29.101563 C 223.5625 27.222656 221.441406 26.269531 218.96875 26.269531 L 218.949219 26.269531 C 216.542969 26.273438 214.554688 27.234375 213.101563 29.074219 C 210.917969 27.261719 208.101563 26.578125 205.507813 27.320313 C 203.089844 28.007813 201.285156 29.765625 200.414063 32.183594 C 197.71875 30.839844 194.734375 30.960938 192.421875 32.601563 C 189.589844 34.617188 188.476563 37.957031 189.398438 41.625 C 188.042969 42.820313 187.191406 44.398438 186.902344 46.265625 C 183.421875 46.566406 180.730469 49.128906 180.15625 52.722656 C 177.015625 53 174.75 54.820313 173.730469 57.914063 C 173.335938 59.117188 173.195313 60.3125 173.28125 61.472656 C 173.105469 61.691406 172.988281 61.957031 172.957031 62.253906 C 172.640625 65.292969 173.328125 67.839844 173.902344 69.347656 C 172.351563 70.90625 171.59375 73.042969 171.742188 75.578125 C 171.929688 78.792969 173.476563 81.371094 176.21875 83.0625 C 175.222656 84.800781 174.910156 86.96875 175.367188 89.128906 C 175.839844 91.367188 177.074219 93.335938 178.816406 94.683594 C 178.46875 95.6875 178.449219 96.734375 178.488281 97.667969 C 178.640625 101.132813 180.273438 103.84375 183.089844 105.300781 C 183.789063 105.664063 184.210938 106.089844 184.621094 106.890625 C 184.542969 115.054688 185.734375 124.070313 188 132.332031 C 188.109375 132.722656 188.226563 133.160156 188.351563 133.636719 C 190.75 142.652344 196.953125 165.925781 217.296875 169.140625 C 217.691406 171.4375 218.550781 176.300781 219.539063 181.046875 C 208.734375 181.328125 180.15625 186.386719 172.984375 196.5625 C 160.976563 213.59375 156.207031 253.238281 156.011719 254.917969 C 155.921875 255.683594 156.425781 256.394531 157.179688 256.558594 C 160.160156 257.207031 163.234375 257.632813 166.285156 257.902344 C 164.746094 278.605469 165.566406 293.828125 168.792969 303.84375 L 28.375 303.84375 C 27.546875 303.84375 26.875 304.515625 26.875 305.34375 C 26.875 306.171875 27.546875 306.84375 28.375 306.84375 L 169.898438 306.84375 C 171.511719 310.691406 173.566406 313.582031 176.082031 315.527344 C 182.574219 320.566406 191.242188 320.488281 198.886719 320.425781 L 199.175781 320.421875 C 202.222656 320.398438 206.832031 320.359375 208.570313 320.796875 C 214.101563 322.195313 218.386719 326.535156 220.945313 329.128906 C 221.566406 329.757813 222.105469 330.300781 222.5625 330.710938 C 223.824219 331.835938 225.234375 332.253906 226.445313 332.363281 C 226.324219 332.753906 226.230469 333.140625 226.191406 333.507813 C 226.050781 334.816406 226.421875 335.996094 227.261719 336.929688 C 228.007813 337.761719 228.980469 338.203125 230.070313 338.203125 L 230.074219 338.203125 C 230.566406 338.203125 231.054688 338.109375 231.523438 337.957031 C 231.636719 339.1875 232.144531 340.441406 233.390625 341.375 C 233.894531 341.753906 234.722656 342.191406 235.867188 342.191406 C 236.195313 342.191406 236.558594 342.136719 236.941406 342.054688 C 237.066406 343.609375 237.710938 345.257813 239.4375 346.292969 C 240.183594 346.742188 240.988281 346.960938 241.816406 346.960938 C 242.773438 346.960938 243.761719 346.65625 244.734375 346.101563 C 245.070313 347.035156 245.703125 347.945313 246.792969 348.621094 C 247.265625 348.910156 247.746094 349.046875 248.242188 349.046875 C 250.4375 349.046875 252.960938 346.382813 256.445313 342.707031 C 258.191406 340.867188 260.164063 338.785156 262.207031 336.960938 C 267.621094 332.132813 275.726563 326.59375 283.5625 321.238281 L 288.234375 318.046875 C 292.460938 315.171875 297.417969 311.789063 301.769531 307.699219 L 383.625 307.699219 C 384.453125 307.699219 385.125 307.027344 385.125 306.199219 C 385.125 305.371094 384.453125 304.699219 383.625 304.699219 " class="color030303 svgShape"></path>
		</svg>
	</g>
</svg>